<svg xmlns="http://www.w3.org/2000/svg" viewBox="0 0 800 500" role="img" aria-labelledby="title desc"><title id="title">Digital marketing growth dashboard</title><desc id="desc">Abstract dashboard showing upward traffic and conversion growth for digital marketing.</desc><rect width="800" height="500" rx="32" fill="#0b1220"/><rect x="40" y="40" width="720" height="420" rx="24" fill="#111827" stroke="#334155"/><path d="M110 365C180 330 190 285 260 300s90-50 150-42 85-80 150-70 60-42 95-80" fill="none" stroke="#38bdf8" stroke-width="10" stroke-linecap="round"/><path d="M110 365C180 330 190 285 260 300s90-50 150-42 85-80 150-70 60-42 95-80V365Z" fill="#2563eb" opacity=".18"/><circle cx="655" cy="108" r="16" fill="#67e8f9"/><rect x="100" y="100" width="180" height="44" rx="14" fill="#1e293b"/><text x="122" y="129" fill="#e2e8f0" font-family="Arial,sans-serif" font-size="20" font-weight="700">+ 3.5x Growth</text><rect x="100" y="158" width="130" height="14" rx="7" fill="#334155"/><rect x="100" y="158" width="92" height="14" rx="7" fill="#38bdf8"/></svg>